<svg width="300" height="185" viewBox="0 0 300 185" fill="none" xmlns="http://www.w3.org/2000/svg">
<path d="M300 92.4995C300 104.69 296.17 116.329 289.22 126.99C267.05 160.99 213.07 184.99 150 184.99C86.18 184.99 31.66 160.41 10 125.76C3.54 115.44 0 104.219 0 92.4895C0 58.2995 30.08 28.4895 74.81 12.4295C95.93 4.8695 120.32 0.429531 146.35 0.0195312C147.56 0.0195312 148.78 0.0195312 150 0.0195312C151.22 0.0195312 152.61 0.0195312 153.91 0.0195312C179.98 0.429531 204.39 4.9395 225.51 12.5495C270.07 28.5995 300 58.3895 300 92.4995Z" fill="#1C1818"/>
<path d="M74.8086 12.4402C95.9286 4.88025 120.319 0.440273 146.349 0.0302734L74.8086 12.4402Z" fill="#6959E2"/>
<path d="M146.429 2.40979C146.429 3.36312 146.389 4.32313 146.309 5.28979L144.149 31.9998C143.394 41.3434 138.959 50.0045 131.819 56.0779C124.678 62.1512 115.418 65.1394 106.074 64.3848C96.7304 63.6303 88.0692 59.1949 81.9959 52.0544C75.9225 44.914 72.9345 35.6534 73.689 26.3098L74.809 12.4598C95.929 4.89984 120.319 0.459805 146.349 0.0498047C146.399 0.819805 146.429 1.60979 146.429 2.40979Z" fill="white"/>
<path d="M153.91 0C179.98 0.41 204.39 4.92003 225.51 12.53L153.91 0Z" fill="#6959E2"/>
<path d="M194.209 63.9998C189.582 64.3747 184.927 63.8345 180.509 62.4101C176.092 60.9857 171.998 58.7049 168.461 55.698C164.925 52.6911 162.016 49.017 159.9 44.8856C157.784 40.7542 156.503 36.2465 156.129 31.6198L153.999 4.88977C153.919 3.91644 153.879 2.95643 153.879 2.00977C153.879 1.34977 153.879 0.679766 153.939 0.00976562C180.009 0.419766 204.419 4.92973 225.539 12.5397L226.619 25.8698C226.999 30.5024 226.462 35.1646 225.039 39.5895C223.615 44.0143 221.333 48.115 218.322 51.6567C215.312 55.1984 211.632 58.1116 207.495 60.2296C203.357 62.3476 198.842 63.6288 194.209 63.9998Z" fill="white"/>
<path d="M289.22 127C267.05 161 213.07 185 150 185C86.18 185 31.66 160.42 10 125.77C23.55 112.51 45 101.47 71.3 94.0795C93.13 87.9595 118.3 84.3295 145.23 84.0195H149H153C179.94 84.3595 205.16 88.0195 227 94.1795C254 101.8 275.81 113.25 289.22 127Z" fill="#E02D5C"/>
</svg>
