<svg width="344" height="345" viewBox="0 0 344 345" fill="none" xmlns="http://www.w3.org/2000/svg">
<path d="M344 172C344 205.746 334.073 238.747 315.456 266.893C296.838 295.039 270.352 317.086 239.296 330.29C208.24 343.493 173.986 347.269 140.799 341.148C107.613 335.026 76.9602 319.277 52.6587 295.863C28.3571 272.448 11.4803 242.402 4.12983 209.466C-3.22069 176.53 -0.720119 142.159 11.3202 110.634C23.3605 79.1084 44.4085 51.8214 71.8431 32.1707C99.2778 12.5199 131.887 1.37371 165.61 0.119995C167.73 0.0399951 169.86 0 172 0C175.1 0 178.19 0.0799902 181.25 0.23999C225.204 2.60721 266.577 21.7357 296.853 53.6875C327.129 85.6393 344.002 127.983 344 172Z" fill="#1C1818"/>
<path d="M43.3711 57.8101C58.7791 40.4188 77.5587 26.338 98.5712 16.4214C119.584 6.50475 142.391 0.958894 165.611 0.120117L43.3711 57.8101Z" fill="#285870"/>
<path d="M165.611 0.120117L163.841 46.6701C163.294 61.4775 157.376 75.5795 147.192 86.3425C137.008 97.1056 123.254 103.794 108.5 105.158C93.745 106.523 78.9982 102.47 67.0132 93.7567C55.0282 85.0437 46.6243 72.2661 43.3711 57.8101C58.7791 40.4188 77.5587 26.338 98.5712 16.4214C119.584 6.50475 142.391 0.958894 165.611 0.120117Z" fill="white"/>
<path d="M181.25 0.240234C204.677 1.48502 227.6 7.5189 248.604 17.9693C269.608 28.4197 288.247 43.0648 303.37 61.0002L181.25 0.240234Z" fill="#285870"/>
<path d="M303.37 60.9998C299.389 74.8604 290.626 86.8623 278.636 94.8755C266.646 102.889 252.205 106.395 237.875 104.772C223.546 103.149 210.255 96.5014 200.361 86.0095C190.467 75.5176 184.61 61.8597 183.83 47.4598L181.25 0.259766C204.676 1.50205 227.598 7.53282 248.602 17.9797C269.606 28.4267 288.245 43.068 303.37 60.9998Z" fill="white"/>
<path d="M7.41016 222.09C18.1581 257.366 39.9553 288.255 69.5886 310.205C99.2219 332.154 135.123 344.002 172 344.002C208.877 344.002 244.778 332.154 274.412 310.205C304.045 288.255 325.842 257.366 336.59 222.09H7.41016Z" fill="#285870"/>
<path d="M336.59 222.09C325.842 257.366 304.045 288.255 274.412 310.205C244.778 332.154 208.877 344.002 172 344.002C135.123 344.002 99.2219 332.154 69.5886 310.205C39.9553 288.255 18.1581 257.366 7.41016 222.09C14.1832 212.669 21.981 204.03 30.6602 196.33C63.8402 166.75 111.59 147.65 164.98 146.1C167.307 146.026 169.64 145.993 171.98 146C175.393 146 178.78 146.07 182.14 146.21C235.91 148.47 283.71 168.53 316.33 199.09C323.829 206.066 330.616 213.771 336.59 222.09Z" fill="#E02D5C"/>
</svg>
