<svg width="707" height="257" viewBox="0 0 707 257" fill="none" xmlns="http://www.w3.org/2000/svg">
<path d="M560.26 215.033C498.388 241.968 431.66 255.958 364.18 256.143C293.83 256.143 220.54 239.203 158.31 213.143C50.5297 168.143 -24.0903 95.8626 7.17966 37.1426C32.4697 -10.3574 79.3797 14.4426 156.72 40.4126C188.06 50.9426 224.4 61.6626 266.33 67.8426C290.117 71.3696 314.132 73.141 338.18 73.1426C377.64 73.1426 414.89 67.3725 449.46 59.0625C488.7 49.6425 524.46 36.9526 556.13 25.7626C632.41 -1.23744 684.64 -19.5874 703.13 37.1426C723.84 100.383 659.28 171.483 560.26 215.033Z" fill="#1C1818"/>
<path d="M560.259 215.033C498.387 241.968 431.659 255.958 364.179 256.143C293.829 256.143 220.539 239.203 158.309 213.143C196.729 155.363 272.049 116.143 358.679 116.143C446.179 116.143 522.179 156.243 560.259 215.033Z" fill="#E02D5C"/>
<path d="M156.719 40.4121C188.059 50.9421 224.399 61.6621 266.329 67.8421L156.719 40.4121Z" fill="#44473D"/>
<path d="M266.33 67.8421L252.24 96.0121C238.66 123.152 210.47 126.452 178.33 120.492C154.33 98.3521 140.01 73.8121 153.59 46.6621L156.72 40.4121C188.06 50.9421 224.4 61.6621 266.33 67.8421Z" fill="white"/>
<path d="M449.461 59.0627C488.701 49.6427 524.461 36.9527 556.131 25.7627L449.461 59.0627Z" fill="#44473D"/>
<path d="M540.641 118.083C507.931 122.893 478.741 117.613 463.241 86.6127L449.461 59.0627C488.701 49.6427 524.461 36.9527 556.131 25.7627L561.891 37.2727C577.401 68.2727 564.121 94.7827 540.641 118.083Z" fill="white"/>
</svg>
