<svg width="514" height="266" viewBox="0 0 514 266" fill="none" xmlns="http://www.w3.org/2000/svg">
<path d="M146.558 12.7297C145.228 15.0597 143.928 17.3997 142.688 19.7297C114.318 16.7797 87.7781 13.7296 65.4581 11.9496L60.8281 0.389648L103.698 6.54962L146.558 12.7297Z" fill="#22D1D1"/>
<path d="M463.519 0L460.719 7C438.439 8.69 410.719 12.89 380.419 17C379.559 15.42 378.689 13.84 377.789 12.28L420.649 6.12L463.519 0Z" fill="#22D1D1"/>
<path d="M514 23.3297C514 99.5597 457.9 165.45 386.34 202.75C350.26 221.57 310.24 233.11 271.5 235.04C269.5 235.14 267.57 235.21 265.62 235.26C263.67 235.31 261.87 235.33 260 235.33C223.63 235.33 185.1 226.52 149.15 210.87C68 175.57 0 105.44 0 23.3297C0 10.0197 26.19 8.90973 65.46 11.9797C87.78 13.7197 114.32 16.8097 142.69 19.7597C180.45 23.6997 221.44 27.4097 260 27.4097C300.17 27.4097 342.29 22.2497 380.42 17.0297C410.69 12.8797 438.42 8.67972 460.72 7.02972C493.18 4.50972 514 7.32971 514 23.3297Z" fill="#1C1818"/>
<path d="M268.5 239.75C257.5 255.04 236.74 265.33 213 265.33C177.65 265.33 149 242.5 149 214.33C149 213.17 149.05 212.01 149.15 210.87C185.1 226.52 223.63 235.33 260 235.33C261.87 235.33 263.74 235.33 265.62 235.26C266.495 236.81 267.457 238.309 268.5 239.75Z" fill="#22D1D1"/>
<path d="M276.998 214.33C276.978 221.592 275.084 228.725 271.498 235.04C270.593 236.668 269.591 238.241 268.498 239.75C267.455 238.309 266.493 236.81 265.618 235.26C263.738 235.31 261.868 235.33 259.998 235.33C223.628 235.33 185.098 226.52 149.148 210.87C151.378 184.33 179.108 163.33 212.998 163.33C236.738 163.33 257.448 173.62 268.498 188.91C273.958 196.267 276.935 205.169 276.998 214.33Z" fill="#E02D5C"/>
<path d="M388 214.33C388 242.5 359.35 265.33 324 265.33C300.26 265.33 279.55 255.04 268.5 239.75C269.593 238.241 270.595 236.668 271.5 235.04C310.24 233.11 350.26 221.57 386.34 202.75C387.443 206.511 388.002 210.411 388 214.33Z" fill="#22D1D1"/>
<path d="M386.34 202.75C350.26 221.57 310.24 233.11 271.5 235.04C270.595 236.668 269.593 238.241 268.5 239.75C267.457 238.309 266.495 236.81 265.62 235.26C261.961 228.89 260.024 221.676 260 214.33C260.064 205.169 263.041 196.267 268.5 188.91C279.5 173.62 300.26 163.33 324 163.33C354.35 163.33 379.76 180.16 386.34 202.75Z" fill="#E02D5C"/>
<path d="M142.691 19.7604C137.989 28.5574 133.792 37.6155 130.121 46.8904C125.467 58.6533 121.66 70.7342 118.731 83.0405L117.581 87.8804L93.8109 60.2404C82.6352 47.252 73.6814 32.5069 67.3109 16.6005L65.4609 11.9805C87.7809 13.7205 114.321 16.8104 142.691 19.7604Z" fill="white"/>
<path d="M460.719 6.99023L456.999 16.1802C450.624 32.0816 441.671 46.8228 430.499 59.8102L406.729 87.4603L405.579 82.6202C402.649 70.3096 398.839 58.2252 394.179 46.4603C390.193 36.3738 385.584 26.5448 380.379 17.0303C410.689 12.8803 438.439 8.68023 460.719 6.99023Z" fill="white"/>
</svg>
