<svg width="838" height="308" viewBox="0 0 838 308" fill="none" xmlns="http://www.w3.org/2000/svg">
<path d="M837.33 83.2723C747.85 218.542 594.36 307.762 420.03 307.762C247.56 307.762 95.49 220.442 5.62 87.6024C3.72 84.789 1.84667 81.959 0 79.1123L141.83 79.8123L231.65 80.2623L332.28 80.7623L414.88 81.1723H418.88L506.73 81.6123L648.13 82.3123L739.59 82.7623L837.33 83.2723Z" fill="#D3410F"/>
<path d="M231.652 80.2629L141.832 79.8129C141.912 77.9395 142.042 76.0395 142.222 74.1129C146.272 30.9429 169.382 -2.18713 193.852 0.112865C217.882 2.35287 246.032 40.7629 231.652 80.2629Z" fill="#AA69F7"/>
<path d="M231.65 80.2625C231.4 80.9825 231.13 81.6925 230.84 82.4125C215.03 121.763 200.03 169.482 179.21 156.422C159.93 144.332 140.05 119.623 141.83 79.8125L231.65 80.2625Z" fill="white"/>
<path d="M413.941 59.6025L414.881 81.1725L332.281 80.7625L413.941 59.6025Z" fill="#AA69F7"/>
<path d="M420.031 98.2927V99.2927C420.031 142.643 398.271 187.123 375.531 177.793C356.031 169.763 331.031 142.613 331.031 99.2627C331.024 93.0747 331.442 86.8935 332.281 80.7627L414.881 81.1727H418.881C419.627 86.8492 420.011 92.5675 420.031 98.2927V98.2927Z" fill="white"/>
<path d="M413.941 59.6025L414.881 81.1725L418.841 81.1925L413.941 59.6025Z" fill="#AA69F7"/>
<path d="M505.653 164.663C482.063 168.663 466.843 142.213 450.033 98.2929C449.573 97.1129 449.123 95.9129 448.663 94.7029C447 90.3151 445.735 85.7869 444.883 81.1729H448.883L536.733 81.6129C543.263 123.633 529.553 160.613 505.653 164.663Z" fill="white"/>
<path d="M739.553 82.7624L648.093 82.3124C637.253 46.0624 660.093 10.6224 682.413 6.84238C706.643 2.74238 736.343 33.5524 739.413 76.8424C739.539 78.6624 739.586 80.6357 739.553 82.7624Z" fill="#AA69F7"/>
<path d="M739.552 82.7625C739.182 107.362 728.082 150.052 708.652 161.642C690.032 172.742 668.032 126.742 651.652 91.6425C650.232 88.6116 649.039 85.4797 648.082 82.2725L739.552 82.7625Z" fill="white"/>
</svg>
