<svg width="32" height="37" viewBox="0 0 32 37" fill="none" xmlns="http://www.w3.org/2000/svg">
<path d="M4.5 23L15 35L25.5 23" stroke="#2D3331" stroke-width="2" stroke-linecap="round"/>
<path d="M3.74403 9.14435C5.59203 9.14435 7.02003 8.11235 7.02003 6.58835C7.02003 4.65635 4.70403 4.08035 3.97203 3.92435C3.21603 3.76835 2.46003 3.51635 2.46003 2.97635C2.46003 2.54435 2.98803 2.23235 3.73203 2.23235C4.51203 2.23235 5.32803 2.55635 5.80803 3.01235L6.67203 1.59635C6.06003 1.00835 5.01603 0.576352 3.74403 0.576352C1.83603 0.576352 0.552025 1.56035 0.552025 3.04835C0.552025 4.51235 1.78803 5.29235 3.44403 5.68835C4.32003 5.90435 5.11203 6.09635 5.11203 6.67235C5.11203 7.16435 4.47603 7.48835 3.73203 7.48835C2.85603 7.48835 1.86003 7.05635 1.18803 6.43235L0.228027 7.84835C1.09203 8.62835 2.46003 9.14435 3.74403 9.14435ZM10.9368 9.14435C12.1728 9.14435 13.2048 8.55635 13.7688 7.62035L12.2448 6.69635C11.9928 7.15235 11.5128 7.45235 10.9368 7.45235C10.0728 7.45235 9.43682 6.80435 9.43682 5.94035C9.43682 5.07635 10.0728 4.42835 10.9368 4.42835C11.5128 4.42835 11.9928 4.72835 12.2448 5.18435L13.7688 4.26035C13.2048 3.32435 12.1728 2.73635 10.9368 2.73635C9.05282 2.73635 7.63683 4.11635 7.63683 5.94035C7.63683 7.76435 9.05282 9.14435 10.9368 9.14435ZM18.0376 2.78435C17.3776 2.78435 16.8136 3.07235 16.3816 3.57635V2.88035H14.6296V9.00035H16.3816V6.14435C16.3816 5.19635 16.9696 4.58435 18.0376 4.58435H18.3016V2.78435H18.0376ZM21.9993 9.14435C23.8833 9.14435 25.2993 7.76435 25.2993 5.94035C25.2993 4.11635 23.8833 2.73635 21.9993 2.73635C20.1153 2.73635 18.6993 4.11635 18.6993 5.94035C18.6993 7.76435 20.1153 9.14435 21.9993 9.14435ZM21.9993 7.45235C21.1353 7.45235 20.4993 6.80435 20.4993 5.94035C20.4993 5.07635 21.1353 4.42835 21.9993 4.42835C22.8633 4.42835 23.4993 5.07635 23.4993 5.94035C23.4993 6.80435 22.8633 7.45235 21.9993 7.45235ZM26.3366 9.00035H28.0886V0.360352H26.3366V9.00035ZM29.4773 9.00035H31.2293V0.360352H29.4773V9.00035Z" fill="#2D3331"/>
</svg>
