<svg width="59" height="59" viewBox="0 0 59 59" fill="none" xmlns="http://www.w3.org/2000/svg">
<path d="M29.5 0C13.2342 0 0 13.2342 0 29.5C0 45.7658 13.2342 59 29.5 59C45.7658 59 59 45.7658 59 29.5C59 13.2342 45.7658 0 29.5 0ZM26.9471 4.68142C27.0447 4.67235 27.1332 4.68823 27.2308 4.68142V27.2308H20.2801C19.8236 21.0425 17.4163 15.1585 13.4043 10.4248C17.135 7.27062 21.796 5.20335 26.9471 4.67915V4.68142ZM31.7692 4.68142C36.8615 5.1196 41.6927 7.12534 45.5979 10.4226C41.5839 15.1562 39.1749 21.0412 38.7176 27.2308H31.7692V4.68142ZM10.2115 13.6835C13.3828 17.5361 15.3117 22.2596 15.7439 27.2308H4.67688C5.11422 22.2611 7.04346 17.5396 10.2115 13.6857V13.6835ZM48.7885 13.6835C51.9561 17.5382 53.8846 22.2605 54.3208 27.2308H43.2583C43.6903 22.2606 45.6184 17.538 48.7885 13.6857V13.6835ZM4.67915 31.7692H15.7417C15.3097 36.7394 13.3816 41.462 10.2115 45.3143C7.04428 41.4601 5.11584 36.7387 4.67915 31.7692ZM20.2801 31.7692H27.2308V54.3208C22.138 53.8814 17.3068 51.874 13.4021 48.5752C17.4149 43.8418 19.823 37.9578 20.2801 31.7692ZM31.7692 31.7692H38.7199C39.1764 37.9575 41.5837 43.8415 45.5957 48.5752C41.6916 51.8736 36.8612 53.8809 31.7692 54.3208V31.7692ZM43.2583 31.7692H54.3208C53.8842 36.7387 51.9557 41.4601 48.7885 45.3143C45.6176 41.4622 43.6887 36.7397 43.2561 31.7692H43.2583Z" fill="#FBC666"/>
</svg>
