<svg width="65" height="58" viewBox="0 0 65 58" fill="none" xmlns="http://www.w3.org/2000/svg">
<path d="M0 25C0 11.1929 11.1929 0 25 0H60.1732V52.2091H25C11.1929 52.2091 0 41.0162 0 27.2091V25Z" fill="#FBC666"/>
<path d="M19.152 35.7565V34.4605H15.496V39.9805H16.872V37.9165H18.848V36.6205H16.872V35.7565H19.152ZM19.4636 39.9805H20.7596V34.2205H19.4636V39.9805ZM23.2914 40.0765C24.5474 40.0765 25.4994 39.1565 25.4994 37.9405C25.4994 36.7245 24.5474 35.8045 23.2914 35.8045C22.0274 35.8045 21.0834 36.7245 21.0834 37.9405C21.0834 39.1565 22.0274 40.0765 23.2914 40.0765ZM23.2914 38.8205C22.7874 38.8205 22.4114 38.4445 22.4114 37.9405C22.4114 37.4365 22.7874 37.0605 23.2914 37.0605C23.7874 37.0605 24.1634 37.4365 24.1634 37.9405C24.1634 38.4445 23.7874 38.8205 23.2914 38.8205ZM28.1201 35.8365C27.7121 35.8365 27.3681 36.0045 27.0961 36.3085V35.9005H25.8001V39.9805H27.0961V38.1165C27.0961 37.5405 27.4561 37.1725 28.1201 37.1725H28.3121V35.8365H28.1201ZM30.9434 35.8045C30.4954 35.8045 30.1034 35.9645 29.8074 36.2365V34.2205H28.5114V39.9805H29.8074V39.6445C30.1034 39.9165 30.4954 40.0765 30.9434 40.0765C32.0554 40.0765 32.8954 39.1565 32.8954 37.9405C32.8954 36.7245 32.0554 35.8045 30.9434 35.8045ZM30.6874 38.8205C30.1834 38.8205 29.8074 38.4445 29.8074 37.9405C29.8074 37.4365 30.1834 37.0605 30.6874 37.0605C31.1914 37.0605 31.5594 37.4365 31.5594 37.9405C31.5594 38.4445 31.1914 38.8205 30.6874 38.8205ZM39.0538 34.4605L37.7098 37.0365L36.3737 34.4605H34.6697V39.9805H36.0458V36.6685L37.3098 39.1085H38.0938L39.3577 36.6685V39.9805H40.7338V34.4605H39.0538ZM44.2124 35.9005V36.2365C43.9164 35.9645 43.5244 35.8045 43.0764 35.8045C41.9644 35.8045 41.1244 36.7245 41.1244 37.9405C41.1244 39.1565 41.9644 40.0765 43.0764 40.0765C43.5244 40.0765 43.9164 39.9165 44.2124 39.6445V39.9805H45.5084V35.9005H44.2124ZM43.3324 38.8205C42.8284 38.8205 42.4604 38.4445 42.4604 37.9405C42.4604 37.4365 42.8284 37.0605 43.3324 37.0605C43.8364 37.0605 44.2124 37.4365 44.2124 37.9405C44.2124 38.4445 43.8364 38.8205 43.3324 38.8205ZM46.6997 35.4605C47.1557 35.4605 47.4917 35.1245 47.4917 34.6765C47.4917 34.2205 47.1557 33.8845 46.6997 33.8845C46.2517 33.8845 45.9077 34.2205 45.9077 34.6765C45.9077 35.1245 46.2517 35.4605 46.6997 35.4605ZM46.0517 39.9805H47.3477V35.9005H46.0517V39.9805ZM47.9036 39.9805H49.1996V34.2205H47.9036V39.9805Z" fill="white"/>
<path d="M33.2655 7.98047C27.5966 7.98047 23 12.5762 23 18.2455C23 23.9148 27.5961 28.5105 33.2655 28.5105C38.9352 28.5105 43.5309 23.9148 43.5309 18.2455C43.5309 12.5762 38.9352 7.98047 33.2655 7.98047ZM33.2655 11.0498C35.1412 11.0498 36.6613 12.5703 36.6613 14.4452C36.6613 16.3205 35.1412 17.8405 33.2655 17.8405C31.3906 17.8405 29.8705 16.3205 29.8705 14.4452C29.8705 12.5703 31.3906 11.0498 33.2655 11.0498ZM33.2632 25.8266C31.3924 25.8266 29.6789 25.1453 28.3573 24.0176C28.0353 23.743 27.8496 23.3403 27.8496 22.9178C27.8496 21.0163 29.3885 19.4945 31.2905 19.4945H35.2413C37.1437 19.4945 38.6768 21.0163 38.6768 22.9178C38.6768 23.3408 38.492 23.7425 38.1696 24.0171C36.8484 25.1453 35.1345 25.8266 33.2632 25.8266Z" fill="white"/>
</svg>
