<svg width="65" height="58" viewBox="0 0 65 58" fill="none" xmlns="http://www.w3.org/2000/svg">
<path d="M0 25C0 11.1929 11.1929 0 25 0H60.1732V52.2091H25C11.1929 52.2091 0 41.0162 0 27.2091V25Z" fill="#B8D7CC"/>
<path d="M19.152 35.7565V34.4605H15.496V39.9805H16.872V37.9165H18.848V36.6205H16.872V35.7565H19.152ZM19.4636 39.9805H20.7596V34.2205H19.4636V39.9805ZM23.2914 40.0765C24.5474 40.0765 25.4994 39.1565 25.4994 37.9405C25.4994 36.7245 24.5474 35.8045 23.2914 35.8045C22.0274 35.8045 21.0834 36.7245 21.0834 37.9405C21.0834 39.1565 22.0274 40.0765 23.2914 40.0765ZM23.2914 38.8205C22.7874 38.8205 22.4114 38.4445 22.4114 37.9405C22.4114 37.4365 22.7874 37.0605 23.2914 37.0605C23.7874 37.0605 24.1634 37.4365 24.1634 37.9405C24.1634 38.4445 23.7874 38.8205 23.2914 38.8205ZM28.1201 35.8365C27.7121 35.8365 27.3681 36.0045 27.0961 36.3085V35.9005H25.8001V39.9805H27.0961V38.1165C27.0961 37.5405 27.4561 37.1725 28.1201 37.1725H28.3121V35.8365H28.1201ZM30.9434 35.8045C30.4954 35.8045 30.1034 35.9645 29.8074 36.2365V34.2205H28.5114V39.9805H29.8074V39.6445C30.1034 39.9165 30.4954 40.0765 30.9434 40.0765C32.0554 40.0765 32.8954 39.1565 32.8954 37.9405C32.8954 36.7245 32.0554 35.8045 30.9434 35.8045ZM30.6874 38.8205C30.1834 38.8205 29.8074 38.4445 29.8074 37.9405C29.8074 37.4365 30.1834 37.0605 30.6874 37.0605C31.1914 37.0605 31.5594 37.4365 31.5594 37.9405C31.5594 38.4445 31.1914 38.8205 30.6874 38.8205ZM38.1178 34.4605V37.5805L36.0458 34.4605H34.6697V39.9805H36.0458V36.8685L38.1178 39.9805H39.4938V34.4605H38.1178ZM42.9703 35.9005V36.2365C42.6743 35.9645 42.2823 35.8045 41.8343 35.8045C40.7223 35.8045 39.8823 36.7245 39.8823 37.9405C39.8823 39.1565 40.7223 40.0765 41.8343 40.0765C42.2823 40.0765 42.6743 39.9165 42.9703 39.6445V39.9805H44.2663V35.9005H42.9703ZM42.0903 38.8205C41.5863 38.8205 41.2183 38.4445 41.2183 37.9405C41.2183 37.4365 41.5863 37.0605 42.0903 37.0605C42.5943 37.0605 42.9703 37.4365 42.9703 37.9405C42.9703 38.4445 42.5943 38.8205 42.0903 38.8205ZM49.7615 35.8045C49.2175 35.8045 48.7695 36.0045 48.4335 36.3965C48.1775 36.0205 47.7535 35.8045 47.2175 35.8045C46.7775 35.8045 46.4015 35.9565 46.1055 36.2445V35.9005H44.8095V39.9805H46.1055V37.7165C46.1055 37.3245 46.3855 37.0605 46.7775 37.0605C47.1535 37.0605 47.3935 37.3165 47.3935 37.7005V39.9805H48.6895V37.7165C48.6895 37.3245 48.9615 37.0605 49.3535 37.0605C49.7295 37.0605 49.9695 37.3165 49.9695 37.7005V39.9805H51.2655V37.3085C51.2655 36.3965 50.6815 35.8045 49.7615 35.8045ZM55.8435 37.9645C55.8435 36.7165 54.9155 35.8045 53.6835 35.8045C52.4435 35.8045 51.5075 36.7165 51.5075 37.9165C51.5075 39.1485 52.4835 40.0765 53.7875 40.0765C54.5315 40.0765 55.1795 39.7805 55.6115 39.3085L54.7555 38.5645C54.5795 38.7565 54.2435 38.9645 53.8275 38.9645C53.3795 38.9645 53.0355 38.7245 52.8995 38.3325H55.8115C55.8355 38.2285 55.8435 38.0765 55.8435 37.9645ZM53.6755 36.9085C54.0435 36.9085 54.3475 37.1485 54.4595 37.5325H52.8915C53.0115 37.1485 53.3075 36.9085 53.6755 36.9085Z" fill="white"/>
<path fill-rule="evenodd" clip-rule="evenodd" d="M32.4603 23.1109V25.0464C32.4603 25.2487 32.6333 25.4127 32.8333 25.4127C33.0393 25.4127 33.2064 25.2427 33.2064 25.0464V23.1109C33.641 22.9573 33.9524 22.5428 33.9524 22.0556C33.9524 21.4375 33.4514 20.9365 32.8333 20.9365C32.2153 20.9365 31.7143 21.4375 31.7143 22.0556C31.7143 22.5428 32.0257 22.9573 32.4603 23.1109ZM27.2381 17.2064V14.5947C27.2381 11.5042 29.7432 9 32.8333 9C35.9172 9 38.4286 11.5048 38.4286 14.5947V17.2064C39.6663 17.2099 40.6667 18.2137 40.6667 19.4515V26.8977C40.6667 28.1457 39.6617 29.1429 38.422 29.1429H27.2447C26.0039 29.1429 25 28.1377 25 26.8977V19.4515C25 18.2057 26.0014 17.2099 27.2381 17.2064ZM29.4762 17.2064V14.5959C29.4762 12.7371 30.9792 11.2381 32.8333 11.2381C34.6837 11.2381 36.1905 12.7414 36.1905 14.5959V17.2064H29.4762Z" fill="white"/>
</svg>
