<svg width="582" height="261" viewBox="0 0 582 261" fill="none" xmlns="http://www.w3.org/2000/svg">
<path d="M103.8 85.2V56H13.2V194H44.2V140.6H96V111.4H44.2V85.2H103.8ZM120.78 194H149.98V50H120.78V194ZM222.123 196.4C253.523 196.4 277.123 173.4 277.123 143C277.123 112.6 253.523 89.6 222.123 89.6C190.723 89.6 167.123 112.6 167.123 143C167.123 173.4 190.723 196.4 222.123 196.4ZM222.123 168.2C207.723 168.2 197.123 157.4 197.123 143C197.123 128.6 207.723 117.8 222.123 117.8C236.523 117.8 247.123 128.6 247.123 143C247.123 157.4 236.523 168.2 222.123 168.2ZM351.213 90.4C340.213 90.4 330.813 95.2 323.613 103.6V92H294.413V194H323.613V146.4C323.613 130.6 333.413 120.4 351.213 120.4H355.613V90.4H351.213ZM429.803 89.6C417.403 89.6 406.803 94.2 399.003 102.2V50H369.803V194H399.003V183.8C406.803 191.8 417.403 196.4 429.803 196.4C458.003 196.4 479.003 173.4 479.003 143C479.003 112.6 458.003 89.6 429.803 89.6ZM424.003 168.2C409.603 168.2 399.003 157.4 399.003 143C399.003 128.6 409.603 117.8 424.003 117.8C438.403 117.8 449.003 128.6 449.003 143C449.003 157.4 438.403 168.2 424.003 168.2ZM532.561 196.4C557.361 196.4 576.961 184.6 576.961 162.2C576.961 138.4 555.361 133.4 539.361 130C528.961 127.8 521.161 126 521.161 120.2C521.161 115 527.561 112.8 535.361 112.8C545.361 112.8 553.761 116.6 561.361 121.8L574.961 103C565.361 96 552.361 89.6 534.361 89.6C511.161 89.6 491.961 100.4 491.961 122.4C491.961 146.4 513.361 151.2 529.561 154.8C539.961 157.2 547.761 159.2 547.761 165C547.761 170.4 541.161 173.2 531.561 173.2C519.761 173.2 510.161 168.8 502.361 162.2L488.761 181C498.761 189.2 513.161 196.4 532.561 196.4Z" fill="#2D3331"/>
<circle cx="221" cy="142" r="47" fill="#2D3331"/>
<circle cx="206.158" cy="126.169" r="15.3368" fill="white"/>
<circle cx="236.833" cy="132.104" r="15.3368" fill="white"/>
<circle cx="203.19" cy="123.2" r="7.42105" fill="#2D3331"/>
<circle cx="238.811" cy="136.062" r="7.42105" fill="#2D3331"/>
</svg>
