<svg width="46" height="47" viewBox="0 0 46 47" fill="none" xmlns="http://www.w3.org/2000/svg">
<path d="M39.8963 31.2565H15.9723C15.5754 31.2571 15.19 31.1227 14.8795 30.8754C14.569 30.628 14.3518 30.2825 14.2637 29.8954L10.2354 12.3452C10.1764 12.0888 10.1761 11.8224 10.2343 11.5659C10.2926 11.3094 10.4079 11.0693 10.5718 10.8635C10.7357 10.6577 10.9438 10.4916 11.1808 10.3774C11.4178 10.2631 11.6774 10.2038 11.9405 10.2039H43.9282C44.1915 10.2033 44.4516 10.2622 44.689 10.3762C44.9264 10.4902 45.135 10.6563 45.2992 10.8622C45.4635 11.068 45.5792 11.3083 45.6376 11.5651C45.696 11.8218 45.6958 12.0885 45.6368 12.3452L41.6014 29.8954C41.5134 30.2819 41.2968 30.627 40.987 30.8743C40.6772 31.1216 40.2927 31.2563 39.8963 31.2565ZM17.3649 27.7576H38.5038L41.7309 13.7062H14.1366L17.3649 27.7576Z" fill="#2D3331"/>
<path d="M19.3952 46.8847C18.0693 46.8847 16.7732 46.4915 15.6708 45.7549C14.5683 45.0182 13.7091 43.9712 13.2017 42.7463C12.6943 41.5213 12.5616 40.1734 12.8202 38.873C13.0789 37.5726 13.7174 36.3781 14.6549 35.4405C15.5925 34.503 16.787 33.8645 18.0874 33.6059C19.3878 33.3472 20.7357 33.48 21.9606 33.9873C23.1856 34.4947 24.2326 35.354 24.9692 36.4564C25.7058 37.5589 26.099 38.855 26.099 40.1809C26.0972 41.9582 25.3903 43.6623 24.1335 44.9191C22.8767 46.1759 21.1726 46.8828 19.3952 46.8847ZM19.3952 36.9771C18.7613 36.9771 18.1416 37.1651 17.6145 37.5173C17.0874 37.8695 16.6767 38.3701 16.4341 38.9558C16.1916 39.5415 16.1282 40.186 16.2519 40.8077C16.3757 41.4294 16.681 42.0005 17.1294 42.4487C17.5777 42.8969 18.1489 43.202 18.7707 43.3255C19.3924 43.4491 20.0369 43.3854 20.6225 43.1427C21.2081 42.8999 21.7086 42.489 22.0606 41.9617C22.4126 41.4345 22.6004 40.8148 22.6002 40.1809C22.5992 39.3312 22.2612 38.5167 21.6604 37.916C21.0595 37.3154 20.2448 36.9777 19.3952 36.9771Z" fill="#2D3331"/>
<path d="M36.4721 46.8847C35.1462 46.8847 33.8501 46.4915 32.7477 45.7549C31.6452 45.0182 30.786 43.9712 30.2786 42.7463C29.7712 41.5213 29.6385 40.1734 29.8971 38.873C30.1558 37.5726 30.7943 36.3781 31.7318 35.4405C32.6694 34.503 33.8639 33.8645 35.1643 33.6059C36.4647 33.3472 37.8126 33.48 39.0376 33.9873C40.2625 34.4947 41.3095 35.354 42.0461 36.4564C42.7827 37.5589 43.1759 38.855 43.1759 40.1809C43.1741 41.9582 42.4672 43.6623 41.2104 44.9191C39.9536 46.1759 38.2495 46.8828 36.4721 46.8847ZM36.4721 36.9771C35.8382 36.9771 35.2185 37.1651 34.6914 37.5173C34.1643 37.8695 33.7536 38.3701 33.511 38.9558C33.2685 39.5415 33.2051 40.186 33.3288 40.8077C33.4526 41.4294 33.758 42.0005 34.2063 42.4487C34.6546 42.8969 35.2258 43.202 35.8476 43.3255C36.4694 43.4491 37.1138 43.3854 37.6994 43.1427C38.285 42.8999 38.7855 42.489 39.1375 41.9617C39.4895 41.4345 39.6773 40.8148 39.6771 40.1809C39.6761 39.3312 39.3381 38.5167 38.7373 37.916C38.1364 37.3154 37.3217 36.9777 36.4721 36.9771Z" fill="#2D3331"/>
<path d="M11.9404 13.7027C11.5732 13.7026 11.2153 13.5871 10.9174 13.3723C10.6196 13.1575 10.3968 12.8545 10.2808 12.5061L7.28228 3.49885H1.74943C1.28545 3.49885 0.840476 3.31454 0.512395 2.98646C0.184314 2.65838 0 2.2134 0 1.74943C0 1.28545 0.184314 0.840476 0.512395 0.512395C0.840476 0.184314 1.28545 0 1.74943 0H8.54886C8.91608 3.39766e-05 9.27398 0.115622 9.57185 0.330388C9.86971 0.545154 10.0924 0.848206 10.2085 1.19661L13.6059 11.4004C13.6935 11.6634 13.7173 11.9434 13.6755 12.2173C13.6336 12.4913 13.5273 12.7514 13.3652 12.9763C13.2032 13.2011 12.99 13.3842 12.7433 13.5105C12.4966 13.6368 12.2234 13.7026 11.9462 13.7027H11.9404Z" fill="#2D3331"/>
</svg>
