<svg width="66" height="61" viewBox="0 0 66 61" fill="none" xmlns="http://www.w3.org/2000/svg">
<path d="M35.5407 29.2059C35.3904 28.9321 35.2027 28.6805 34.9832 28.4584L32.4769 25.9863C32.2195 25.7243 31.9155 25.5125 31.5805 25.3618C31.0533 25.1267 30.4672 25.0566 29.8994 25.1607C29.3316 25.2648 28.8086 25.5384 28.3992 25.9453C27.53 26.8008 25.9394 28.3614 23.0697 31.197C17.5816 36.6262 7.3913 45.726 2.78331 49.607C2.55115 49.8013 2.36186 50.0417 2.22742 50.3129C2.09299 50.5841 2.01634 50.8803 2.00234 51.1827C1.98834 51.4851 2.03728 51.7872 2.14608 52.0696C2.25487 52.3521 2.42114 52.609 2.63436 52.8239L7.96388 58.2122C8.1785 58.4275 8.43533 58.596 8.71823 58.7073C9.00114 58.8185 9.304 58.8701 9.60778 58.8587C9.91156 58.8472 10.2097 58.7731 10.4834 58.6409C10.7572 58.5087 11.0006 58.3213 11.1985 58.0905C15.1943 53.3937 24.3583 43.1952 29.7835 37.8343C32.5699 35.093 34.1318 33.5187 35.016 32.6496C35.4545 32.2037 35.7412 31.6309 35.8354 31.0126C35.9296 30.3944 35.8265 29.7622 35.5407 29.2059V29.2059Z" stroke="#FB7F7D" stroke-width="4" stroke-linecap="round" stroke-linejoin="round"/>
<path d="M63.0097 22.9191L58.3211 18.2728C58.2496 18.2013 58.1642 18.1452 58.0702 18.1078C57.9762 18.0704 57.8756 18.0527 57.7745 18.0555C57.6735 18.0538 57.5732 18.0721 57.4794 18.1094C57.3856 18.1467 57.3001 18.2023 57.2279 18.2728C57.0592 18.4424 56.8537 18.5709 56.6274 18.6484C56.4011 18.7259 56.16 18.7503 55.9228 18.7197C55.3106 18.6527 54.6588 18.4628 54.2379 18.0555C53.2813 17.1181 54.3868 15.2732 53.545 14.0925C52.5837 12.8005 51.5296 11.5801 50.391 10.4411C49.4263 9.48456 45.6341 5.86732 39.2469 3.26269C37.2086 2.42765 35.0268 1.99873 32.8241 2C29.2233 2 26.4547 3.60706 25.4448 4.52948C24.6413 5.25648 23.8049 6.41121 23.8049 6.41121C24.2879 6.23515 24.7812 6.0891 25.2822 5.97391C26.3268 5.75004 27.3988 5.68143 28.4635 5.7703C30.5898 5.94658 33.1521 6.94416 34.5268 8.02373C36.742 9.80023 37.6945 12.1767 37.8434 15.2432C37.9528 17.5239 35.7622 20.4032 33.6837 22.751C33.5008 22.9574 33.4045 23.2263 33.4146 23.5019C33.4248 23.7775 33.5407 24.0386 33.7383 24.2309L36.6409 27.1321C36.8431 27.3318 37.1151 27.4449 37.3993 27.4475C37.6835 27.45 37.9575 27.3418 38.1632 27.1458C40.0668 25.2996 42.4118 23.2552 43.7414 22.4367C45.0711 21.6181 46.1438 21.3872 46.659 21.3311C47.6713 21.2331 48.689 21.4538 49.5697 21.9625C49.7249 22.0502 49.8666 22.1597 49.9906 22.2877C50.8734 23.1842 50.8201 24.6491 49.9223 25.5319L49.649 25.7902C49.5779 25.8601 49.5215 25.9435 49.483 26.0355C49.4445 26.1274 49.4246 26.2261 49.4246 26.3258C49.4246 26.4256 49.4445 26.5243 49.483 26.6162C49.5215 26.7082 49.5779 26.7916 49.649 26.8615L54.3376 31.5078C54.4096 31.5786 54.495 31.6343 54.5889 31.6714C54.6829 31.7085 54.7833 31.7263 54.8842 31.7237C55.0878 31.7266 55.2842 31.649 55.4309 31.5078L63.0097 24.0123C63.1494 23.8646 63.2273 23.669 63.2273 23.4657C63.2273 23.2623 63.1494 23.0667 63.0097 22.9191V22.9191Z" stroke="#FB7F7D" stroke-width="4" stroke-linecap="round" stroke-linejoin="round"/>
</svg>
