<svg width="63" height="63" viewBox="0 0 63 63" fill="none" xmlns="http://www.w3.org/2000/svg">
<path d="M31.5315 29.4105C32.5986 31.3726 34.2945 32.9242 36.3501 33.8193C38.4058 34.7143 40.7034 34.9015 42.8782 34.351C45.0531 33.8006 46.9807 32.5441 48.355 30.7809C49.7293 29.0177 50.4717 26.8489 50.4643 24.6187C50.4569 22.3885 49.7001 20.2246 48.3141 18.4705C46.9281 16.7164 44.9922 15.4725 42.8137 14.9364C40.6352 14.4002 38.3389 14.6024 36.2893 15.511C34.2396 16.4195 32.5541 17.9822 31.5001 19.9512" stroke="#F4B4F6" stroke-width="4" stroke-miterlimit="10" stroke-linecap="round"/>
<path d="M31.4686 19.893C30.4015 17.9309 28.7056 16.3793 26.6499 15.4842C24.5943 14.5892 22.2967 14.402 20.1218 14.9525C17.947 15.5029 16.0194 16.7595 14.6451 18.5226C13.2707 20.2858 12.5284 22.4546 12.5358 24.6848C12.5432 26.915 13.3 29.0789 14.686 30.833C16.072 32.5871 18.0079 33.831 20.1864 34.3671C22.3649 34.9033 24.6611 34.7011 26.7108 33.7925C28.7604 32.884 30.446 31.3213 31.5 29.3523" stroke="#F4B4F6" stroke-width="4" stroke-miterlimit="10"/>
<path d="M39.4019 28.3394C37.3653 28.3394 35.7144 26.6884 35.7144 24.6519C35.7144 22.6153 37.3653 20.9644 39.4019 20.9644C41.4384 20.9644 43.0894 22.6153 43.0894 24.6519C43.0894 26.6884 41.4384 28.3394 39.4019 28.3394Z" fill="#F4B4F6" stroke="#F4B4F6" stroke-width="2" stroke-miterlimit="10"/>
<path d="M22.5447 28.3394C20.5081 28.3394 18.8572 26.6884 18.8572 24.6519C18.8572 22.6153 20.5081 20.9644 22.5447 20.9644C24.5812 20.9644 26.2322 22.6153 26.2322 24.6519C26.2322 26.6884 24.5812 28.3394 22.5447 28.3394Z" fill="#F4B4F6" stroke="#F4B4F6" stroke-width="2" stroke-miterlimit="10"/>
<path d="M31.5 61C15.2076 61 2 47.7924 2 31.5C2 15.2076 15.2076 2 31.5 2C47.7924 2 61 15.2076 61 31.5C61 47.7924 47.7924 61 31.5 61Z" stroke="#F4B4F6" stroke-width="4" stroke-miterlimit="10"/>
</svg>
