<svg width="102" height="45" viewBox="0 0 102 45" fill="none" xmlns="http://www.w3.org/2000/svg">
<path d="M1 1L51 43L101 1" stroke="black" stroke-width="2"/>
<path d="M38.744 13.144C40.592 13.144 42.02 12.112 42.02 10.588C42.02 8.656 39.704 8.08 38.972 7.924C38.216 7.768 37.46 7.516 37.46 6.976C37.46 6.544 37.988 6.232 38.732 6.232C39.512 6.232 40.328 6.556 40.808 7.012L41.672 5.596C41.06 5.008 40.016 4.576 38.744 4.576C36.836 4.576 35.552 5.56 35.552 7.048C35.552 8.512 36.788 9.292 38.444 9.688C39.32 9.904 40.112 10.096 40.112 10.672C40.112 11.164 39.476 11.488 38.732 11.488C37.856 11.488 36.86 11.056 36.188 10.432L35.228 11.848C36.092 12.628 37.46 13.144 38.744 13.144ZM45.9368 13.144C47.1728 13.144 48.2048 12.556 48.7688 11.62L47.2448 10.696C46.9928 11.152 46.5128 11.452 45.9368 11.452C45.0728 11.452 44.4368 10.804 44.4368 9.94C44.4368 9.076 45.0728 8.428 45.9368 8.428C46.5128 8.428 46.9928 8.728 47.2448 9.184L48.7688 8.26C48.2048 7.324 47.1728 6.736 45.9368 6.736C44.0528 6.736 42.6368 8.116 42.6368 9.94C42.6368 11.764 44.0528 13.144 45.9368 13.144ZM53.0376 6.784C52.3776 6.784 51.8136 7.072 51.3816 7.576V6.88H49.6296V13H51.3816V10.144C51.3816 9.196 51.9696 8.584 53.0376 8.584H53.3016V6.784H53.0376ZM56.9993 13.144C58.8833 13.144 60.2993 11.764 60.2993 9.94C60.2993 8.116 58.8833 6.736 56.9993 6.736C55.1153 6.736 53.6993 8.116 53.6993 9.94C53.6993 11.764 55.1153 13.144 56.9993 13.144ZM56.9993 11.452C56.1353 11.452 55.4993 10.804 55.4993 9.94C55.4993 9.076 56.1353 8.428 56.9993 8.428C57.8633 8.428 58.4993 9.076 58.4993 9.94C58.4993 10.804 57.8633 11.452 56.9993 11.452ZM61.3366 13H63.0886V4.36H61.3366V13ZM64.4773 13H66.2293V4.36H64.4773V13Z" fill="black"/>
</svg>
