<svg width="710" height="261" viewBox="0 0 710 261" fill="none" xmlns="http://www.w3.org/2000/svg">
<path d="M103.8 88.4V56H12.4V194H46.8V142.4H96.2V110H46.8V88.4H103.8ZM651.12 196.4C682.32 196.4 706.52 179 706.52 153C706.52 120.2 667.32 110.6 655.32 108C643.12 105.2 632.32 101.4 632.32 94.4C632.32 88.4 639.92 84.2 650.92 84.2C663.52 84.2 676.92 89.4 685.12 96.8L700.92 70.6C690.52 61 672.72 53.6 651.32 53.6C618.72 53.6 596.92 70.2 596.92 95.6C596.92 120 616.92 133.6 645.72 140.6C660.52 144.2 671.32 147 671.32 154.4C671.32 161.4 661.92 165.8 650.92 165.8C636.92 165.8 620.52 158.8 608.92 148.6L591.32 174.8C606.12 187.8 629.52 196.4 651.12 196.4Z" fill="#DA8A01"/>
<path d="M147.589 161.6V56H113.189V194H202.589V161.6H147.589Z" fill="#02D02B"/>
<path d="M277.253 196.4C319.053 196.4 350.453 165.6 350.453 125C350.453 84.4 319.053 53.6 277.253 53.6C235.653 53.6 204.253 84.4 204.253 125C204.253 165.6 235.653 196.4 277.253 196.4ZM277.253 163.2C255.853 163.2 239.453 146.8 239.453 125C239.453 103.2 255.853 86.8 277.253 86.8C298.853 86.8 315.253 103.2 315.253 125C315.253 146.8 298.853 163.2 277.253 163.2ZM433.666 194H474.866L444.866 144C460.666 136.6 470.866 121.8 470.866 103.4C470.866 76.2 449.466 56 421.466 56H360.666V194H395.066V149H408.666L433.666 194ZM395.066 88.4H420.666C429.266 88.4 435.666 95 435.666 103.6C435.666 112.4 429.266 119 420.666 119H395.066V88.4Z" fill="#D93300"/>
<path d="M572.186 120.8C580.986 115.2 586.986 104 586.986 91.6C586.986 71 570.586 56 549.586 56H480.986V194H553.986C576.386 194 593.386 178.6 593.386 156.4C593.386 140.4 584.586 126 572.186 120.8ZM540.786 87C546.986 87 551.586 91.6 551.586 97.8C551.586 104 546.986 108.6 540.786 108.6H514.186V87H540.786ZM545.386 163H514.186V137.8H545.386C552.586 137.8 557.986 143.4 557.986 150.4C557.986 157.4 552.586 163 545.386 163Z" fill="#0289B6"/>
<circle cx="273" cy="123" r="67" fill="#D93300"/>
<circle cx="251.842" cy="100.432" r="21.8632" fill="white"/>
<circle cx="295.568" cy="108.895" r="21.8632" fill="white"/>
<circle cx="247.611" cy="96.2" r="10.5789" fill="#2D3331"/>
<circle cx="298.389" cy="114.537" r="10.5789" fill="#2D3331"/>
</svg>
