<svg width="61" height="53" viewBox="0 0 61 53" fill="none" xmlns="http://www.w3.org/2000/svg">
<path d="M0 25C0 11.1929 11.1929 0 25 0H60.1732V52.2091H25C11.1929 52.2091 0 41.0162 0 27.2091V25Z" fill="#FB7F7D"/>
<path d="M24.872 38.704V37.872H27.016V36.576H24.872V35.776H27.272V34.48H23.496V40H27.312V38.704H24.872ZM32.6734 35.824C32.1294 35.824 31.6814 36.024 31.3454 36.416C31.0894 36.04 30.6654 35.824 30.1294 35.824C29.6894 35.824 29.3134 35.976 29.0174 36.264V35.92H27.7214V40H29.0174V37.736C29.0174 37.344 29.2974 37.08 29.6894 37.08C30.0654 37.08 30.3054 37.336 30.3054 37.72V40H31.6014V37.736C31.6014 37.344 31.8734 37.08 32.2654 37.08C32.6414 37.08 32.8814 37.336 32.8814 37.72V40H34.1774V37.328C34.1774 36.416 33.5934 35.824 32.6734 35.824ZM37.5234 35.92V36.256C37.2274 35.984 36.8354 35.824 36.3874 35.824C35.2754 35.824 34.4354 36.744 34.4354 37.96C34.4354 39.176 35.2754 40.096 36.3874 40.096C36.8354 40.096 37.2274 39.936 37.5234 39.664V40H38.8194V35.92H37.5234ZM36.6434 38.84C36.1394 38.84 35.7714 38.464 35.7714 37.96C35.7714 37.456 36.1394 37.08 36.6434 37.08C37.1474 37.08 37.5234 37.456 37.5234 37.96C37.5234 38.464 37.1474 38.84 36.6434 38.84ZM40.0106 35.48C40.4666 35.48 40.8026 35.144 40.8026 34.696C40.8026 34.24 40.4666 33.904 40.0106 33.904C39.5626 33.904 39.2186 34.24 39.2186 34.696C39.2186 35.144 39.5626 35.48 40.0106 35.48ZM39.3626 40H40.6586V35.92H39.3626V40ZM41.2145 40H42.5105V34.24H41.2145V40Z" fill="white"/>
<path d="M42.8906 10H23.1094C21.9477 10 21 10.8877 21 11.978V25.1648C21 26.2514 21.9435 27.1429 23.1094 27.1429H42.8906C44.0494 27.1429 45 26.2581 45 25.1648V11.978C45 10.8914 44.0565 10 42.8906 10ZM42.5993 11.3187L33.0447 20.2784L23.4075 11.3187H42.5993ZM22.4062 24.8918V12.2448L29.1787 18.5411L22.4062 24.8918ZM23.4006 25.8242L30.1773 19.4694L32.5519 21.677C32.8268 21.9326 33.2703 21.9317 33.5441 21.675L35.8594 19.5039L42.5994 25.8242H23.4006ZM43.5938 24.8917L36.8537 18.5714L43.5938 12.2511V24.8917Z" fill="white"/>
</svg>
