<svg width="61" height="53" viewBox="0 0 61 53" fill="none" xmlns="http://www.w3.org/2000/svg">
<path d="M0 25C0 11.1929 11.1929 0 25 0H60.1732V52.2091H25C11.1929 52.2091 0 41.0162 0 27.2091V25Z" fill="#FBC666"/>
<path d="M23.944 34.48V37.6L21.872 34.48H20.496V40H21.872V36.888L23.944 40H25.32V34.48H23.944ZM28.7965 35.92V36.256C28.5005 35.984 28.1085 35.824 27.6605 35.824C26.5485 35.824 25.7085 36.744 25.7085 37.96C25.7085 39.176 26.5485 40.096 27.6605 40.096C28.1085 40.096 28.5005 39.936 28.7965 39.664V40H30.0925V35.92H28.7965ZM27.9165 38.84C27.4125 38.84 27.0445 38.464 27.0445 37.96C27.0445 37.456 27.4125 37.08 27.9165 37.08C28.4205 37.08 28.7965 37.456 28.7965 37.96C28.7965 38.464 28.4205 38.84 27.9165 38.84ZM35.5877 35.824C35.0437 35.824 34.5957 36.024 34.2597 36.416C34.0037 36.04 33.5797 35.824 33.0437 35.824C32.6037 35.824 32.2277 35.976 31.9317 36.264V35.92H30.6357V40H31.9317V37.736C31.9317 37.344 32.2117 37.08 32.6037 37.08C32.9797 37.08 33.2197 37.336 33.2197 37.72V40H34.5157V37.736C34.5157 37.344 34.7877 37.08 35.1797 37.08C35.5557 37.08 35.7958 37.336 35.7958 37.72V40H37.0918V37.328C37.0918 36.416 36.5078 35.824 35.5877 35.824ZM41.6698 37.984C41.6698 36.736 40.7418 35.824 39.5098 35.824C38.2698 35.824 37.3338 36.736 37.3338 37.936C37.3338 39.168 38.3098 40.096 39.6138 40.096C40.3578 40.096 41.0058 39.8 41.4378 39.328L40.5818 38.584C40.4058 38.776 40.0698 38.984 39.6538 38.984C39.2058 38.984 38.8618 38.744 38.7258 38.352H41.6378C41.6618 38.248 41.6698 38.096 41.6698 37.984ZM39.5018 36.928C39.8698 36.928 40.1738 37.168 40.2858 37.552H38.7178C38.8378 37.168 39.1338 36.928 39.5018 36.928Z" fill="white"/>
<path d="M30.2655 8C24.5966 8 20 12.5957 20 18.265C20 23.9343 24.5961 28.53 30.2655 28.53C35.9352 28.53 40.5309 23.9343 40.5309 18.265C40.5309 12.5957 35.9352 8 30.2655 8ZM30.2655 11.0694C32.1412 11.0694 33.6613 12.5898 33.6613 14.4647C33.6613 16.3401 32.1412 17.8601 30.2655 17.8601C28.3906 17.8601 26.8705 16.3401 26.8705 14.4647C26.8705 12.5898 28.3906 11.0694 30.2655 11.0694ZM30.2632 25.8462C28.3924 25.8462 26.6789 25.1648 25.3573 24.0371C25.0353 23.7625 24.8496 23.3598 24.8496 22.9373C24.8496 21.0358 26.3885 19.514 28.2905 19.514H32.2413C34.1437 19.514 35.6768 21.0358 35.6768 22.9373C35.6768 23.3603 35.492 23.7621 35.1696 24.0367C33.8484 25.1648 32.1345 25.8462 30.2632 25.8462Z" fill="white"/>
</svg>
